<?xml version="1.0" encoding="UTF-8"?>
<svg id="Layer_1" xmlns="http://www.w3.org/2000/svg" version="1.1" viewBox="0 0 286.5 76.9">
  <!-- Generator: Adobe Illustrator 29.8.4, SVG Export Plug-In . SVG Version: 2.1.1 Build 6)  -->
  <defs>
    <style>
      .st0 {
        fill: #fff;
      }

      .st1 {
        isolation: isolate;
      }
    </style>
  </defs>
  <path class="st0" d="M39.5,7.7l30.6,30.8-12.3,12.3-15.5-15.1-2.9-2.8-2.8,2.8-15.3,15.1-12.5-12.4L39.5,7.7M39.5,1.9L3.1,38.4l18.2,18.1,18.1-18,18.3,18,18.1-18.1L39.5,1.9h0Z"/>
  <g>
    <g class="st1">
      <path class="st0" d="M98.1,21.9h-8.1l-1.7,4.9h-3.8l7.9-20.9h3.3l7.9,20.9h-3.8l-1.7-4.9ZM91,19h6.1l-3-8.7-3,8.7Z"/>
      <path class="st0" d="M113.6,18.8h-4v8h-3.6V5.9h7.3c2.4,0,4.3.5,5.6,1.6s2,2.6,2,4.7-.3,2.6-1,3.5c-.7.9-1.6,1.7-2.8,2.2l4.7,8.7v.2h-3.9l-4.2-8ZM109.6,15.8h3.7c1.2,0,2.2-.3,2.9-.9s1-1.5,1-2.5-.3-2-1-2.6-1.6-.9-2.8-.9h-3.8v7Z"/>
      <path class="st0" d="M132,18.8h-4v8h-3.6V5.9h7.3c2.4,0,4.3.5,5.6,1.6s2,2.6,2,4.7-.3,2.6-1,3.5c-.7.9-1.6,1.7-2.8,2.2l4.7,8.7v.2h-3.9l-4.2-8ZM127.9,15.8h3.7c1.2,0,2.2-.3,2.9-.9s1-1.5,1-2.5-.3-2-1-2.6-1.6-.9-2.8-.9h-3.8v7Z"/>
    </g>
    <g class="st1">
      <path class="st0" d="M146.5,26.8h-3.6V5.9h3.6v20.9Z"/>
    </g>
    <g class="st1">
      <path class="st0" d="M162.9,21.9h-8.1l-1.7,4.9h-3.8l7.9-20.9h3.3l7.9,20.9h-3.8l-1.7-4.9ZM155.8,19h6.1l-3-8.7-3,8.7Z"/>
    </g>
    <g class="st1">
      <path class="st0" d="M186.4,24.1c-.8,1-1.8,1.7-3.1,2.2-1.3.5-2.9.8-4.6.8s-3.3-.4-4.7-1.2c-1.3-.8-2.4-1.9-3.1-3.4-.7-1.5-1.1-3.2-1.1-5.2v-1.6c0-3.2.8-5.6,2.3-7.4s3.6-2.7,6.3-2.7,4.2.6,5.5,1.7c1.4,1.2,2.2,2.8,2.5,5h-3.6c-.4-2.5-1.9-3.8-4.4-3.8s-2.9.6-3.7,1.8c-.8,1.2-1.3,2.9-1.3,5.2v1.6c0,2.3.5,4,1.4,5.3,1,1.2,2.3,1.9,4,1.9s3.2-.4,4-1.3v-4.1h-4.3v-2.8h7.9v8Z"/>
      <path class="st0" d="M202.1,21.9h-8.1l-1.7,4.9h-3.8l7.9-20.9h3.3l7.9,20.9h-3.8l-1.7-4.9ZM195.1,19h6.1l-3-8.7-3,8.7Z"/>
    </g>
    <g class="st1">
      <path class="st0" d="M210,26.8V5.9h6.2c1.8,0,3.5.4,4.9,1.2,1.4.8,2.5,2,3.3,3.5.8,1.5,1.2,3.2,1.2,5.2v1c0,2-.4,3.7-1.2,5.2s-1.9,2.7-3.4,3.5-3.1,1.2-5,1.2h-6ZM213.6,8.8v15.1h2.4c1.9,0,3.4-.6,4.4-1.8,1-1.2,1.5-2.9,1.6-5.1v-1.2c0-2.3-.5-4-1.5-5.2-1-1.2-2.4-1.8-4.3-1.8h-2.5Z"/>
    </g>
    <g class="st1">
      <path class="st0" d="M240.6,21.9h-8.1l-1.7,4.9h-3.8l7.9-20.9h3.3l7.9,20.9h-3.8l-1.7-4.9ZM233.5,19h6.1l-3-8.7-3,8.7Z"/>
    </g>
  </g>
  <polygon class="st0" points="52.9 60.8 49.9 57.8 39.3 68.5 31.6 60.8 42.2 50.1 39.2 47.1 25.6 60.7 26.2 61.3 26.2 61.4 38 73.3 38.1 73.2 39.3 74.5 52.9 60.8"/>
  <g>
    <g class="st1">
      <path class="st0" d="M102.7,48.1c-.2,2.2-1,4-2.5,5.2-1.4,1.2-3.3,1.9-5.7,1.9s-3.1-.4-4.4-1.2c-1.3-.8-2.2-1.9-2.9-3.4s-1-3.1-1.1-5.1v-2c0-2,.3-3.7,1-5.2.7-1.5,1.7-2.7,3-3.5,1.3-.8,2.8-1.2,4.5-1.2s4.2.6,5.6,1.9c1.4,1.2,2.2,3,2.5,5.3h-3.6c-.2-1.5-.6-2.6-1.3-3.3-.7-.7-1.7-1-3.1-1s-2.8.6-3.6,1.7c-.8,1.2-1.3,2.8-1.3,5.1v1.9c0,2.3.4,4,1.2,5.2s2,1.8,3.6,1.8,2.5-.3,3.2-1c.7-.6,1.2-1.7,1.4-3.2h3.6Z"/>
      <path class="st0" d="M122.6,45c0,2-.4,3.8-1.1,5.4-.7,1.5-1.7,2.7-3,3.6s-2.8,1.2-4.5,1.2-3.2-.4-4.5-1.2c-1.3-.8-2.3-2-3.1-3.5-.7-1.5-1.1-3.3-1.1-5.3v-1.2c0-2,.4-3.8,1.1-5.4.7-1.6,1.7-2.8,3.1-3.6,1.3-.8,2.8-1.2,4.5-1.2s3.2.4,4.5,1.2c1.3.8,2.3,2,3,3.5.7,1.5,1.1,3.3,1.1,5.4v1.2ZM119,43.9c0-2.3-.4-4.1-1.3-5.3-.9-1.2-2.1-1.9-3.7-1.9s-2.8.6-3.7,1.8c-.9,1.2-1.3,3-1.4,5.2v1.2c0,2.3.4,4.1,1.3,5.3.9,1.3,2.1,1.9,3.7,1.9s2.8-.6,3.7-1.8c.9-1.2,1.3-3,1.3-5.4v-1.1Z"/>
      <path class="st0" d="M142.8,54.9h-3.6l-9.3-14.8v14.8h-3.6v-20.9h3.6l9.3,14.9v-14.9h3.6v20.9Z"/>
      <path class="st0" d="M158,49.5c0-.9-.3-1.6-1-2.1-.6-.5-1.8-1-3.5-1.5-1.7-.5-3-1.1-4-1.7-1.9-1.2-2.9-2.8-2.9-4.7s.7-3.1,2.1-4.2c1.4-1.1,3.2-1.6,5.3-1.6s2.8.3,3.9.8c1.1.5,2,1.3,2.7,2.3s1,2.1,1,3.3h-3.6c0-1.1-.3-1.9-1-2.6-.7-.6-1.7-.9-2.9-.9s-2.1.3-2.8.8c-.7.5-1,1.2-1,2.1s.4,1.4,1.1,1.9,1.9,1,3.5,1.5c1.6.5,2.9,1,3.9,1.7s1.7,1.3,2.2,2.1.7,1.7.7,2.8c0,1.7-.7,3.1-2,4.2-1.3,1-3.1,1.5-5.4,1.5s-2.9-.3-4.2-.8-2.3-1.3-3-2.3-1.1-2.1-1.1-3.4h3.6c0,1.2.4,2.1,1.2,2.8s1.9,1,3.4,1,2.2-.3,2.8-.8c.6-.5,1-1.2,1-2Z"/>
      <path class="st0" d="M180.1,34v14c0,2.2-.7,4-2.1,5.3-1.4,1.3-3.3,1.9-5.7,1.9s-4.3-.6-5.7-1.9-2.1-3-2.1-5.3v-13.9h3.6v14c0,1.4.4,2.5,1.1,3.2s1.8,1.1,3.1,1.1c2.8,0,4.2-1.5,4.2-4.4v-13.9h3.6Z"/>
    </g>
    <g class="st1">
      <path class="st0" d="M187.6,52h9.5v2.9h-13.1v-20.9h3.6v18Z"/>
    </g>
    <g class="st1">
      <path class="st0" d="M212,36.9h-6.5v18h-3.6v-18h-6.5v-2.9h16.6v2.9Z"/>
    </g>
    <g class="st1">
      <path class="st0" d="M231.1,45c0,2-.4,3.8-1.1,5.4-.7,1.5-1.7,2.7-3,3.6s-2.8,1.2-4.5,1.2-3.2-.4-4.5-1.2-2.3-2-3.1-3.5c-.7-1.5-1.1-3.3-1.1-5.3v-1.2c0-2,.4-3.8,1.1-5.4.7-1.6,1.7-2.8,3.1-3.6,1.3-.8,2.8-1.2,4.5-1.2s3.2.4,4.5,1.2c1.3.8,2.3,2,3,3.5.7,1.5,1.1,3.3,1.1,5.4v1.2ZM227.4,43.9c0-2.3-.4-4.1-1.3-5.3-.9-1.2-2.1-1.9-3.7-1.9s-2.8.6-3.7,1.8c-.9,1.2-1.3,3-1.4,5.2v1.2c0,2.3.4,4.1,1.3,5.3.9,1.3,2.1,1.9,3.7,1.9s2.8-.6,3.7-1.8c.9-1.2,1.3-3,1.3-5.4v-1.1Z"/>
      <path class="st0" d="M242.4,46.8h-4v8h-3.6v-20.9h7.3c2.4,0,4.3.5,5.6,1.6s2,2.6,2,4.7-.3,2.6-1,3.5c-.7.9-1.6,1.7-2.8,2.2l4.7,8.7v.2h-3.9l-4.2-8ZM238.3,43.9h3.7c1.2,0,2.2-.3,2.9-.9.7-.6,1-1.5,1-2.5s-.3-2-1-2.6c-.6-.6-1.6-.9-2.8-.9h-3.8v7Z"/>
      <path class="st0" d="M265.2,45.5h-8.6v6.4h10v2.9h-13.7v-20.9h13.6v2.9h-9.9v5.8h8.6v2.9Z"/>
      <path class="st0" d="M280.6,49.5c0-.9-.3-1.6-1-2.1-.6-.5-1.8-1-3.5-1.5-1.7-.5-3-1.1-4-1.7-1.9-1.2-2.9-2.8-2.9-4.7s.7-3.1,2.1-4.2c1.4-1.1,3.2-1.6,5.3-1.6s2.8.3,3.9.8c1.1.5,2,1.3,2.7,2.3s1,2.1,1,3.3h-3.6c0-1.1-.3-1.9-1-2.6-.7-.6-1.7-.9-2.9-.9s-2.1.3-2.8.8c-.7.5-1,1.2-1,2.1s.4,1.4,1.1,1.9,1.9,1,3.5,1.5c1.6.5,2.9,1,3.9,1.7s1.7,1.3,2.2,2.1.7,1.7.7,2.8c0,1.7-.7,3.1-2,4.2-1.3,1-3.1,1.5-5.4,1.5s-2.9-.3-4.2-.8-2.3-1.3-3-2.3-1.1-2.1-1.1-3.4h3.6c0,1.2.4,2.1,1.2,2.8s1.9,1,3.4,1,2.2-.3,2.8-.8c.6-.5,1-1.2,1-2Z"/>
    </g>
  </g>
  <g class="st1">
    <path class="st0" d="M90.3,71.2c0-.3-.1-.6-.3-.8-.2-.2-.6-.4-1.2-.5-.6-.2-1-.4-1.4-.6-.7-.4-1-1-1-1.7s.2-1.1.7-1.5c.5-.4,1.1-.6,1.8-.6s.9,0,1.3.3.7.5.9.8c.2.3.3.7.3,1.2h-1.2c0-.4-.1-.7-.4-.9-.2-.2-.6-.3-1-.3s-.7,0-.9.3c-.2.2-.3.4-.3.7s.1.5.4.7.6.4,1.2.5c.6.2,1,.4,1.3.6.3.2.6.5.7.8.2.3.2.6.2,1,0,.6-.2,1.1-.7,1.5-.5.4-1.1.5-1.9.5s-1,0-1.4-.3c-.4-.2-.8-.5-1-.8s-.4-.8-.4-1.2h1.2c0,.4.1.7.4,1,.3.2.7.3,1.2.3s.8,0,1-.3.3-.4.3-.7Z"/>
    <path class="st0" d="M100.2,69.8h-2.9v2.3h3.4v1h-4.7v-7.4h4.6v1h-3.4v2h2.9v1Z"/>
  </g>
  <g class="st1">
    <path class="st0" d="M107.7,70.3h-1.4v2.8h-1.2v-7.4h2.5c.8,0,1.5.2,1.9.6.4.4.7.9.7,1.7s-.1.9-.3,1.2c-.2.3-.6.6-1,.8l1.6,3.1h0c0,0-1.3,0-1.3,0l-1.4-2.8ZM106.3,69.2h1.3c.4,0,.7-.1,1-.3.2-.2.4-.5.4-.9s-.1-.7-.3-.9-.5-.3-1-.3h-1.3v2.5Z"/>
  </g>
  <g class="st1">
    <path class="st0" d="M117.1,71.5l1.8-5.8h1.4l-2.6,7.4h-1.2l-2.6-7.4h1.4l1.8,5.8Z"/>
    <path class="st0" d="M125.9,73.1h-1.2v-7.4h1.2v7.4Z"/>
    <path class="st0" d="M136.3,70.7c0,.8-.4,1.4-.8,1.8-.5.4-1.1.7-2,.7s-1.1-.1-1.5-.4c-.4-.3-.8-.7-1-1.2-.2-.5-.4-1.1-.4-1.8v-.7c0-.7.1-1.3.4-1.8.2-.5.6-.9,1-1.2.4-.3,1-.4,1.5-.4s1.4.2,1.9.7.8,1.1.8,1.9h-1.2c0-.5-.2-.9-.4-1.1s-.6-.4-1.1-.4-1,.2-1.2.6c-.3.4-.4,1-.4,1.8v.7c0,.8.1,1.4.4,1.8s.7.6,1.2.6.9-.1,1.1-.3.4-.6.5-1.1h1.2Z"/>
    <path class="st0" d="M142.1,73.1h-1.2v-7.4h1.2v7.4Z"/>
    <path class="st0" d="M152.8,69.6c0,.7-.1,1.4-.4,1.9s-.6,1-1,1.3c-.4.3-1,.4-1.6.4s-1.1-.1-1.5-.4c-.5-.3-.8-.7-1.1-1.2-.2-.5-.4-1.2-.4-1.9v-.4c0-.7.1-1.4.4-1.9.2-.6.6-1,1-1.3s1-.4,1.5-.4,1.1.1,1.5.4c.4.3.8.7,1,1.2.2.5.4,1.2.4,1.9v.4ZM151.5,69.2c0-.8-.2-1.4-.4-1.9-.3-.4-.7-.7-1.3-.7s-1,.2-1.3.7c-.3.4-.5,1-.5,1.8v.4c0,.8.2,1.4.5,1.9.3.4.7.7,1.3.7s1-.2,1.3-.6.4-1.1.4-1.9v-.4Z"/>
    <path class="st0" d="M161.2,71.2c0-.3-.1-.6-.3-.8-.2-.2-.6-.4-1.2-.5-.6-.2-1-.4-1.4-.6-.7-.4-1-1-1-1.7s.2-1.1.7-1.5c.5-.4,1.1-.6,1.8-.6s.9,0,1.3.3.7.5.9.8c.2.3.3.7.3,1.2h-1.2c0-.4-.1-.7-.4-.9s-.6-.3-1-.3-.7,0-.9.3c-.2.2-.3.4-.3.7s.1.5.4.7.6.4,1.2.5c.6.2,1,.4,1.3.6.3.2.6.5.7.8.2.3.2.6.2,1,0,.6-.2,1.1-.7,1.5s-1.1.5-1.9.5-1,0-1.4-.3c-.4-.2-.8-.5-1-.8-.2-.3-.4-.8-.4-1.2h1.2c0,.4.1.7.4,1,.3.2.7.3,1.2.3s.8,0,1-.3.3-.4.3-.7Z"/>
    <path class="st0" d="M174.1,73.1h-1.2v-7.4h1.2v7.4Z"/>
    <path class="st0" d="M184.8,73.1h-1.2l-3.2-5.2v5.2h-1.2v-7.4h1.2l3.2,5.3v-5.3h1.2v7.4Z"/>
    <path class="st0" d="M191.3,65.7l2.1,5.7,2.1-5.7h1.6v7.4h-1.2v-5.7c.1,0-2,5.7-2,5.7h-.9l-2.1-5.7v3.2c.1,0,.1,2.4.1,2.4h-1.2v-7.4h1.6Z"/>
    <path class="st0" d="M207.6,69.6c0,.7-.1,1.4-.4,1.9-.2.5-.6,1-1,1.3-.5.3-1,.4-1.6.4s-1.1-.1-1.5-.4c-.5-.3-.8-.7-1.1-1.2-.2-.5-.4-1.2-.4-1.9v-.4c0-.7.1-1.4.4-1.9.2-.6.6-1,1-1.3s1-.4,1.5-.4,1.1.1,1.5.4c.5.3.8.7,1,1.2.2.5.4,1.2.4,1.9v.4ZM206.3,69.2c0-.8-.1-1.4-.4-1.9s-.7-.7-1.3-.7-1,.2-1.3.7c-.3.4-.5,1-.5,1.8v.4c0,.8.2,1.4.5,1.9.3.4.7.7,1.3.7s1-.2,1.3-.6.4-1.1.4-1.9v-.4Z"/>
    <path class="st0" d="M212.2,73.1v-7.4h2.5c.8,0,1.4.2,1.8.5s.6.8.6,1.5,0,.6-.3.9c-.2.3-.4.5-.8.6.4.1.7.3.9.6.2.3.3.7.3,1.1,0,.7-.2,1.2-.6,1.6-.4.4-1,.6-1.8.6h-2.6ZM213.5,68.8h1.2c.4,0,.7,0,.9-.3.2-.2.3-.4.3-.8s-.1-.6-.3-.8-.5-.2-.9-.2h-1.2v2.1ZM213.5,69.8v2.3h1.4c.4,0,.7,0,.9-.3.2-.2.3-.5.3-.8,0-.8-.4-1.2-1.1-1.2h-1.5Z"/>
    <path class="st0" d="M223.3,73.1h-1.2v-7.4h1.2v7.4Z"/>
    <path class="st0" d="M229.5,72.1h3.2v1h-4.5v-7.4h1.2v6.3Z"/>
  </g>
  <g class="st1">
    <path class="st0" d="M237.9,73.1h-1.2v-7.4h1.2v7.4Z"/>
  </g>
  <g class="st1">
    <path class="st0" d="M246.9,71.4h-2.8l-.6,1.7h-1.3l2.7-7.4h1.1l2.7,7.4h-1.3l-.6-1.7ZM244.5,70.4h2.1l-1-3.1-1,3.1Z"/>
    <path class="st0" d="M255.6,70.3h-1.4v2.8h-1.2v-7.4h2.5c.8,0,1.5.2,1.9.6.4.4.7.9.7,1.7s-.1.9-.3,1.2c-.2.3-.6.6-1,.8l1.6,3.1h0c0,0-1.3,0-1.3,0l-1.4-2.8ZM254.2,69.2h1.3c.4,0,.7-.1,1-.3.2-.2.4-.5.4-.9s-.1-.7-.3-.9c-.2-.2-.5-.3-1-.3h-1.3v2.5Z"/>
    <path class="st0" d="M264,73.1h-1.2v-7.4h1.2v7.4Z"/>
    <path class="st0" d="M274.7,69.6c0,.7-.1,1.4-.4,1.9s-.6,1-1,1.3c-.5.3-1,.4-1.6.4s-1.1-.1-1.5-.4c-.5-.3-.8-.7-1.1-1.2-.2-.5-.4-1.2-.4-1.9v-.4c0-.7.1-1.4.4-1.9.2-.6.6-1,1-1.3s1-.4,1.5-.4,1.1.1,1.5.4c.5.3.8.7,1,1.2.2.5.4,1.2.4,1.9v.4ZM273.4,69.2c0-.8-.1-1.4-.4-1.9s-.7-.7-1.3-.7-1,.2-1.3.7c-.3.4-.5,1-.5,1.8v.4c0,.8.2,1.4.5,1.9.3.4.7.7,1.3.7s1-.2,1.3-.6c.3-.4.4-1.1.4-1.9v-.4Z"/>
    <path class="st0" d="M283,71.2c0-.3-.1-.6-.3-.8-.2-.2-.6-.4-1.2-.5-.6-.2-1-.4-1.4-.6-.7-.4-1-1-1-1.7s.2-1.1.7-1.5,1.1-.6,1.8-.6.9,0,1.3.3.7.5.9.8c.2.3.3.7.3,1.2h-1.2c0-.4-.1-.7-.4-.9s-.6-.3-1-.3-.7,0-.9.3c-.2.2-.3.4-.3.7s.1.5.4.7.6.4,1.2.5c.6.2,1,.4,1.3.6.3.2.6.5.7.8s.2.6.2,1c0,.6-.2,1.1-.7,1.5-.5.4-1.1.5-1.9.5s-1,0-1.4-.3c-.4-.2-.8-.5-1-.8-.2-.3-.4-.8-.4-1.2h1.2c0,.4.1.7.4,1,.3.2.7.3,1.2.3s.8,0,1-.3.3-.4.3-.7Z"/>
  </g>
</svg>