<?xml version="1.0" encoding="UTF-8"?>
<svg xmlns="http://www.w3.org/2000/svg" version="1.1" xmlns:xlink="http://www.w3.org/1999/xlink" viewBox="0 0 512 512">
  <!-- Generator: Adobe Illustrator 29.8.4, SVG Export Plug-In . SVG Version: 2.1.1 Build 6)  -->
  <defs>
    <style>
      .st0, .st1 {
        font-size: 144.1px;
      }

      .st0, .st2 {
        font-family: Roboto-Black, Roboto;
        font-weight: 800;
      }

      .st0, .st3 {
        fill: #ff4200;
      }

      .st4 {
        font-size: 102.6px;
      }

      .st4, .st5, .st6, .st7, .st8, .st1, .st2, .st9, .st10 {
        fill: #2a2a2a;
      }

      .st4, .st6, .st11, .st12, .st13, .st14, .st8, .st15, .st1, .st16, .st17, .st9, .st10, .st18 {
        font-family: Roboto-Medium, Roboto;
        font-weight: 500;
      }

      .st6 {
        font-size: 50.8px;
        letter-spacing: .3em;
      }

      .st7 {
        font-family: Poppins-SemiBold, Poppins;
        font-size: 218.5px;
        font-weight: 600;
      }

      .st11 {
        font-size: 401.5px;
      }

      .st11, .st12, .st19, .st13, .st14, .st15, .st16, .st17, .st18 {
        fill: #fff;
      }

      .st12 {
        font-size: 119.6px;
      }

      .st13 {
        font-size: 242.5px;
      }

      .st20 {
        fill: none;
        stroke-width: 14px;
      }

      .st20, .st21 {
        stroke: #fff;
        stroke-miterlimit: 10;
      }

      .st14 {
        font-size: 99.6px;
      }

      .st8 {
        font-size: 77.8px;
        letter-spacing: .3em;
      }

      .st15 {
        font-size: 141.7px;
        letter-spacing: .3em;
      }

      .st21 {
        fill: #0373f9;
        stroke-width: 11px;
      }

      .st16 {
        font-size: 99.7px;
      }

      .st17 {
        font-size: 105.9px;
      }

      .st22 {
        fill: #ef0f0f;
      }

      .st2, .st10 {
        font-size: 220.5px;
      }

      .st9 {
        font-size: 36.2px;
        letter-spacing: .3em;
      }

      .st18 {
        font-size: 85.6px;
        letter-spacing: .3em;
      }
    </style>
  </defs>
  <g id="Capa_1">
    <image width="811" height="242" transform="translate(-4459 4860)" xlink:href="../../../PAGINAS ARRIAGADA CONSULTORES/ARRIAGADA CONSULTORES-/assets/images/logo-arriagada-consultores.png"/>
  </g>
  <g id="Capa_2">
    <g>
      <path class="st5" d="M-3704,7476.2l106.7,107.5-43.1,43.1-54-52.9-10-9.8-10,9.8-53.3,52.8-43.6-43.4,107.2-107.2M-3703.9,7456l-127.4,127.4,63.7,63.4,63.4-62.7,64,62.7,63-63-126.7-127.7h0Z"/>
      <polygon class="st5" points="-3657.1 7661.8 -3667.7 7651.3 -3704.9 7688.5 -3731.7 7661.6 -3694.5 7624.4 -3705.1 7613.9 -3752.6 7661.4 -3750.5 7663.6 -3750.6 7663.8 -3709.2 7705.2 -3709 7705 -3704.7 7709.4 -3657.1 7661.8"/>
      <text class="st4" transform="translate(-3547.8 7543)"><tspan x="0" y="0">ARRIAGADA</tspan></text>
      <text class="st4" transform="translate(-3546.5 7640.9)"><tspan x="0" y="0">CONSULTORES</tspan></text>
      <text class="st9" transform="translate(-3542.4 7704.7) scale(1 1)"><tspan x="0" y="0">SERVICIOS INMOBILIARIOS</tspan></text>
    </g>
    <path class="st19" d="M-3570.4,6355.3l252.2,254.2-101.8,101.8-127.6-125-23.6-23.2-23.5,23.3-126.1,124.8-103-102.5,253.4-253.4M-3570.3,6307.7l-301.1,301.1,150.6,149.8,149.8-148.2,151.3,148.2,149-149-299.6-301.9h0Z"/>
    <polygon class="st19" points="-3459.8 6794.2 -3484.6 6769.4 -3572.6 6857.3 -3636.1 6793.8 -3548.2 6705.8 -3573 6681 -3685.4 6793.3 -3680.3 6798.4 -3680.8 6798.8 -3582.8 6896.9 -3582.3 6896.4 -3572.1 6906.6 -3459.8 6794.2"/>
    <text class="st13" transform="translate(-3201.3 6513.3)"><tspan x="0" y="0">ARRIAGADA</tspan></text>
    <text class="st13" transform="translate(-3198.2 6744.8)"><tspan x="0" y="0">CONSULTORES</tspan></text>
    <text class="st18" transform="translate(-3188.6 6895.5) scale(1 1)"><tspan x="0" y="0">SERVICIOS INMOBILIARIOS</tspan></text>
    <image width="108" height="125" transform="translate(-3051.4 5282.1)" xlink:href="FAVICON-arriagada-consultores-1.png"/>
    <circle class="st21" cx="-4440.6" cy="6100.7" r="142.1"/>
    <g>
      <path class="st19" d="M-4440.3,6018.3l82.5,83.2-33.3,33.3-41.7-40.9-7.7-7.6-7.7,7.6-41.3,40.8-33.7-33.5,82.9-82.9M-4440.3,6002.8l-98.5,98.5,49.3,49,49-48.5,49.5,48.5,48.8-48.8-98-98.8h0Z"/>
      <polygon class="st19" points="-4403.6 6162 -4411.8 6153.8 -4440.6 6182.6 -4461.3 6161.8 -4432.6 6133 -4440.7 6124.9 -4477.5 6161.7 -4475.8 6163.3 -4476 6163.4 -4443.9 6195.5 -4443.7 6195.4 -4440.4 6198.7 -4403.6 6162"/>
    </g>
    <path class="st21" d="M-4278.1,5675.9H-1877.2c25.1,0,45.5,20.4,45.5,45.5v164.7c0,25.1-20.4,45.5-45.5,45.5h-2446.4v-210.1c0-25.1,20.4-45.5,45.5-45.5Z"/>
    <text class="st12" transform="translate(-4274.5 5841.7)"><tspan x="0" y="0">Condominio las delicias III Av. Las. Torres 80</tspan></text>
    <path class="st19" d="M1614.5,5539.1l2279.7,2297.4-920.2,920.2-1153-1129.5-213.7-209.4-212.7,210.5-1139.6,1127.8-931.2-926.4,2290.7-2290.7M1615.3,5108.5l-2721.8,2721.8,1360.9,1353.9,1353.9-1340,1367.9,1340,1346.9-1346.9-2707.8-2728.8h0Z"/>
    <polygon class="st19" points="2614.6 9506.5 2389.9 9281.9 1595 10076.9 1020.5 9502.4 1815.5 8707.4 1590.9 8482.8 575.4 9498.2 620.8 9543.6 616.7 9547.7 1503 10434.1 1507.1 10429.9 1599.1 10521.9 2614.6 9506.5"/>
    <text class="st10" transform="translate(-3437.6 8870.9)"><tspan x="0" y="0">ARRIAGADA</tspan></text>
    <text class="st10" transform="translate(-3434.8 9081.4)"><tspan x="0" y="0">CONSULTORES</tspan></text>
    <text class="st8" transform="translate(-3426.1 9218.4) scale(1 1)"><tspan x="0" y="0">SERVICIOS INMOBILIARIOS</tspan></text>
    <g>
      <path class="st5" d="M-5806.9,11594.5c85.5,5.3,184.1-9,268.1-.5,34.9,3.5,66.1,38.4,68.7,73-4.8,81.8,6.5,170.9.1,251.8-3,37.8-32.6,71.1-70.9,75.1-84.1-6.3-179.7,8.1-262.4,0-37.5-3.7-66-38.8-68.9-75-6.4-81.4,4.8-171.4.3-253.7,5.3-34.4,30.1-63.7,64.8-70.5ZM-5793.7,11921.9c3.3,3.3,56.9-10.9,66.5-10.4,6.4.3,21.8,7.7,30.7,9.5,117.2,23.2,201.9-113.9,127-207.4-99.1-123.6-288.3,4.1-215.6,143.8l-8.6,64.5Z"/>
      <path class="st5" d="M-5770.5,11898.6c-1.6-1.4,6.9-36.5,6.5-43.4-.3-5.1-10.9-22.6-13.2-31.4-25.8-98.4,79.1-176.4,165.2-122.8,101.6,63.2,39.2,223-79,201.7-9.9-1.8-27.4-11.1-34-11.5s-43.3,9.5-45.5,7.5ZM-5707.4,11734c-6.9-4-20.4,9.1-23.3,15-11.5,23.4,16,64,33.2,79.8,13.8,12.7,53.7,36.6,71.7,27.2,2.1-1.1,15.5-16.7,15.9-18.1,1.8-6.8-17.7-20.4-24-19.7-7,.7-14.2,17.3-24.4,14-12.2-3.9-51.6-42.2-48.4-55,.9-3.6,11.2-3.8,10.2-16.9s-9.2-25.3-10.9-26.3Z"/>
    </g>
    <text class="st7" transform="translate(-5348.2 11866.1)"><tspan x="0" y="0">+56 9 9583 8619</tspan></text>
    <text class="st7" transform="translate(-932.5 11864.8)"><tspan x="0" y="0">Arriagada_Consultores</tspan></text>
    <path class="st5" d="M-1396.2,11590.4l274-.5c36.6,6.3,62.5,35.7,67.5,71.9-5.4,83.8,7.3,176.8,0,259.5-3.2,36.9-32.1,70.2-69.8,73.9-83.8,8.3-180.8-6.2-266,.1-36.4-4.3-66.2-35.8-69.6-72-7.8-83.4,5.6-178.8.2-263.5,6.2-34.3,29.1-61.4,63.5-69.4ZM-1323.2,11661.2c-39,4.4-63,32.8-66.1,71.2-2.4,29.7-3.4,123.6,6.5,148.1,10.9,27,34.7,41.2,63.4,43.9s123.1,3.3,147.4-4.8c27.5-9.3,44.1-36.6,46.7-64.9,2.9-31.1,3.1-95.6,0-126.5-3.6-36.4-29.9-62.9-66-67-31.4-3.6-100.3-3.6-131.8,0Z"/>
    <path class="st5" d="M-1325.4,11684c27.6-4,103.8-3.4,132.4-.5,25,2.5,43.6,21.2,46.1,46.1,3.1,31.2,2.8,95.1.1,126.6-2.2,26.1-19.8,45.5-46.2,48.2-31.2,3.1-95.1,2.8-126.6.1-26.1-2.2-45.5-19.8-48.2-46.2-3-29.8-3.3-101.2.2-130.6,2.6-22,20.1-40.5,42.1-43.6ZM-1190.4,11709.5c-16.1,3.3-12.9,31.3,7.6,27.1,16-3.3,13.7-31.5-7.6-27.1ZM-1263.2,11722.6c-91.2,8.3-80.6,146.1,7.8,143.2,96.4-3.2,86.7-151.8-7.8-143.2Z"/>
    <path class="st5" d="M-1267.6,11746c74.6-12.7,80.3,107.1-.3,95.8-49.3-6.9-50.2-87.2.3-95.8Z"/>
    <path class="st5" d="M1949.3,11591.8l270.1-.6c40.8,7.7,65.9,39.3,69.2,80,6.3,77.3-4.7,162.7.1,240.9-3.1,41.8-27.3,74.2-69.3,82-85.4-5.5-180,7.3-264.4,0-37.1-3.2-68-37.2-71.3-73.6-7.3-81.9,5.2-174.5.2-257.6,3.5-33.9,31.9-64.8,65.3-71.1ZM2145.9,11661.6c-34.2-3.8-77.5-9.8-94.8,27.7-1.3,2.7-7.5,20.9-7.5,22.4v52.2h-44.8v49h44.8v123.6h53.3v-123.6h37.3c6.7-14.3,6.1-33.1,9.6-49h-46.9v-48c0-15.1,38.3-18.2,49-16v-38.4Z"/>
    <text class="st7" transform="translate(2410.4 11866.1)"><tspan x="0" y="0">Arriagada Consultores</tspan></text>
    <g>
      <text class="st7" transform="translate(-9567.7 11866.1)"><tspan x="0" y="0">https://arriagadaconsultores.cl</tspan></text>
      <g>
        <path class="st5" d="M-9689.6,11667c-2.6-34.6-33.8-69.5-68.7-73-84-8.5-182.6,5.9-268.1.5-34.7,6.8-59.6,36.1-64.9,70.5,4.5,82.3-6.7,172.3-.3,253.7,2.9,36.2,31.3,71.3,68.9,75,82.7,8.2,178.3-6.2,262.4,0,38.3-4,67.9-37.3,70.9-75.1,6.4-80.9-4.9-170-.1-251.8Z"/>
        <g>
          <path class="st19" d="M-10010.8,11781.3c-.3-1.5-1.2-5.1.1-6,3.4-1,7.1-2.1,9.6,1.1,3.1,3.9,5.9,22.8,7.3,24.3,1.6,1.7,1.6-.4,2-1.4,1.3-4.3,6.6-22.9,9.7-24.4,2.5-1.2,8.7-1,10.8.9,2.1,1.9,5.9,14.5,7.2,18.1.7,2,1.6,10.2,3.7,5.6,2.3-5.2,4.3-20.4,7.5-23.7,2.5-2.5,6.7-1.5,9.7-.3.6,2.2,0,4.4-.5,6.5-.9,3.6-10.1,29.3-11.6,30.3-2.4,1.7-8.9,1.8-11.2-.4-3.4-3.1-6.8-19.9-9.6-25.4-.5-1,.5-1.8-2-1.4-1.6,5.1-7.2,25.7-11,27.5-3,1.4-8.8,1.4-10.8-1.5-2.2-3.3-9.9-25.3-10.9-29.9Z"/>
          <path class="st19" d="M-9856.6,11779.5c-.3,2.6-10.5,31.4-11.8,32.6-2.6,2.5-10.6,1.9-12.8-1.8-2.4-4-7.4-24.3-8.4-25.2-1.4-1.4-1.7.4-2.2,1.2-3.2,5.9-5.5,20.5-9.1,25-2.7,3.4-10.9,3.2-13.3-1.2-2.3-4.4-10.1-26.4-10.8-31.1-1-6,7.7-6,10.1-3.2,2.4,2.7,6.4,24.9,8.2,24.9,4.3-5.1,5.8-24.9,12.7-26.2,4.4-.9,8.5-.3,10.7,3.8,1.9,3.7,6.5,21.6,7.3,22.4,1.5,1.5,1.7-.4,2-1.4,1.6-4.5,5-21.8,7.2-24,2.4-2.5,10.9-1.9,10.1,4.1Z"/>
          <path class="st19" d="M-9838.6,11682c-67.9-29.8-148.9,4.2-171.7,74.8h17.5c.9-5.1,3.8-10.7,7.3-14.6h33.6l-3.9,14.6h17.5c.8-3.3,2.1-11.5,3.8-14,1-1.4,31.9-1.1,33.3-.2,2,1.4.4,11.3.9,14.2h15.6c.5-2.9-1.1-12.8.9-14.2,1.3-.9,29.3-.9,32.7-.5,6,.7,5.2,10.9,8.7,14.7h16.1l-3.9-14.6h36l5.8,14.6h17.5c-9.9-33.2-36.3-61-67.8-74.8ZM-9935.5,11709.4c-3.4,5.5-7.5,11.1-9.5,17.3h-30.2c13.9-17,33-29,54-35.1l-14.3,17.8ZM-9900.2,11726.7h-26.3c4.9-9.1,12-18.7,20-25.3,1.7-1.4,4.1-3.6,6.3-3.9v29.2ZM-9884.7,11726.7v-29.2c12.1,5.7,21.3,18,28.2,29.2h-28.2ZM-9837.9,11726.7c-5.9-13.5-16-26.2-27.3-35.5,4.6-.5,10.3,2,14.8,3.7,17,6.4,33.5,17.4,44.5,31.9h-32.1Z"/>
          <path class="st19" d="M-9770.2,11776.3c.9,1.9-4.3,15.9-5.4,19-3,8.3-4.6,21.1-15.9,17.8-5.3-1.6-9.5-23.9-12.9-29-1.5,0-7.7,24.4-10.2,27.6-1.8,2.2-9.1,2.4-11.3.8-4-2.9-9.7-28.2-12.9-33.9-.7-5,8-5.6,10.5-2.6,2,2.5,4.6,13.8,5.7,17.7.5,1.6,1,6.8,1.3,7,1.3,1.5,1.7-.4,2.2-1.2,2.4-4.4,6.1-22.2,9.2-24.1,2.1-1.4,9.9-1.5,11.8.3,3.7,3.6,6.9,23,9,25.1,1.6,1.6,1.6-.4,2-1.4,1.3-4.3,5.1-21.7,7.3-23.9,1.8-1.8,8.5-1.6,9.8,1Z"/>
          <path class="st19" d="M-9787.3,11828.9l-4.9,13.6h-37l3.9-13.6h-17.5c-.3,4.5-1.9,9.8-4.4,13.6h-37.5v-13.6h-15.6v13.6h-35.1c-1.7-4.4-1.8-9.9-4.4-13.6h-16.1l2.9,13.6h-34.6c-3.1-4-4.8-8.9-6.3-13.6h-17.5c7.7,22.9,21.4,44.3,40.4,59.4,70,55.5,174.1,25.6,201-59.4h-17.5ZM-9922.2,11896.1c-21.7-6.7-39.6-19.2-54.5-36-.5-3.1,1.8-1,2-1h28.2c6.2,12.7,13.1,25.1,23.6,34.8.6.6,2.9.6.7,2.2ZM-9900.2,11890.3c-12.2-5.7-22.4-19.3-27.3-31.6.2-1.4,1.2.5,1.5.5h25.8v31.2ZM-9884.7,11889.3v-30.2h27.8c.3,0,.7-1.2,1.5-1,1.5,1.9-10.9,17.2-13.1,19.5-4.1,4.3-10.4,9.7-16.1,11.7ZM-9819.9,11875.6c-7,5.6-16,11.2-24.1,14.8-6.2,2.8-14.7,6.2-21.1,6.2,11.2-10.9,22.8-22.4,28.2-37.5,10.2-.1,20.5.2,30.7,0,.1,0,2.6-1.9,2.4.5,0,1.1-14.2,14.6-16.1,16Z"/>
        </g>
      </g>
    </g>
    <path class="st22" d="M-6439.1,9210.9h0c196.3,0,355.8,159.4,355.8,355.8v355.8h-355.8c-196.3,0-355.8-159.4-355.8-355.8h0c0-196.4,159.4-355.8,355.8-355.8Z" transform="translate(4878.7 7355.1) rotate(45)"/>
    <circle class="st19" cx="-6440" cy="9567.6" r="127.3"/>
    <path class="st5" d="M-9324.3,5156.1h2764.8c70.3,0,127.3,57.1,127.3,127.3v103.5c0,70.3-57.1,127.3-127.3,127.3h-2764.8v-358.1h0Z"/>
    <polyline class="st20" points="-7052 10521.9 -7825 9614.6 -9884.7 9614.6"/>
    <g>
      <g>
        <g>
          <path class="st19" d="M-9924.2,7440.2c1.6,1.2,27.7-22.7,31.4-25.2,1.5-1,1.7-2.6,4.5-1.8l19.8,113.2-107.8-37.8c-4-5.4,32.2-25.9,32.3-33.2-66.1-129.1-9.8-288.8,122.9-346.4,47.7-20.7,118.6-27.5,168.4-11.4,10.8,3.5,23,14,10.9,23.6-9.1,7.2-28.1-2.6-39-4.4-167.7-27.8-307,128.3-255.4,291.4,3.5,11,8.9,21,12.1,32Z"/>
          <path class="st19" d="M-9465.9,7190.3c3.8,5.2-32.2,25.9-32.3,33.2,0,2.2,14,32.8,16.2,39.6,38.5,122.9-21.4,255.8-139,306.8-47.7,20.7-118.7,27.5-168.4,11.4-22.7-7.4-18.7-28.6,2.6-26,11.5,1.4,25.2,7,38.1,8.6,155.8,19,282.8-123.4,247.5-276.3-4-17.3-11.1-32.3-16.8-48.9-2.1-1.7-33,29.6-35.9,27l-19.8-113.2,107.8,37.8Z"/>
          <path class="st19" d="M-9725.3,7181.6c3.1-1.1,8.1-.9,10.5,1.5l80.3,124.6c43.8,63.7,6.8,182-74.9,189.9-96.8,9.5-146-114-98.9-188.8l83-127.3ZM-9722,7206.5l-68.9,105.5c-27.3,43.3-24.8,103.6,10.4,141.7,38.5,41.6,96.1,34.8,127.3-11.2,60-88.3-24.1-160-64.7-233.1-1.1-1.5-1.7-3.6-4.2-3Z"/>
          <path class="st19" d="M-9676.8,7318.2c9.1-3.2,11.5,3,15.3,9.3,16.2,26.8,18.4,60.6,6,89.3-2.7,6.3-13.1,25-19.8,25.4-22.2,1.2.2-23.4,3.5-30.8,9.3-20.4,10.1-39,2.8-60.3-2.7-7.9-19.4-28.9-7.9-32.9Z"/>
        </g>
        <text class="st14" transform="translate(-9837.1 7704.8)"><tspan x="0" y="0">Agua</tspan></text>
      </g>
      <g>
        <g>
          <path class="st19" d="M-9136.3,7109.8c96.4-6.7,169.3,83.3,146.2,176.9-11.1,45-53.6,81.1-63,126-1.7,7.9-.6,28.5-8.1,30.7l-134.6-.4c-4.8-6.2-2.3-14.1-3.4-20.9-7.1-44.3-40.1-75.6-57.1-114.1-39.8-90.2,22.3-191.3,120-198.2ZM-9124.6,7262.8l18.6-69.5-73.6,79.9-1.5,5.7h51.7s-18.6,69.5-18.6,69.5l76.7-85.6h-53.3Z"/>
          <path class="st19" d="M-9175,7502.4c25.8-2.2,77.7-3.3,102.7-.3,21.9,2.7,20.3,28.4,1.8,30.5-35.2,4.2-78.5-3.1-114.6-.1-9.9-3-15.7-10.7-11.4-20.9,4.1-9.8,12.1-8.4,21.5-9.2Z"/>
          <path class="st19" d="M-9186.4,7458.7l117.5-.3c16.9,2.1,16.9,26.8.2,29-35.6-3.9-82.1,5.1-116.3-.2-16.7-2.6-16.9-25.5-1.3-28.6Z"/>
          <path class="st19" d="M-9081,7548.8c.7,2.8-1.2,3.2-2.4,4.9-3.9,5.1-21.2,22-26.6,23.5-6.7,1.8-31.6,1.7-37.6-1.2-3.1-1.5-20.3-18.7-23-22.2s-3.1-2-2.4-4.9h92.1Z"/>
        </g>
        <text class="st16" transform="translate(-9206.5 7704.7)"><tspan x="0" y="0">Luz</tspan></text>
      </g>
      <g>
        <g>
          <path class="st19" d="M-8494.9,7134c171.7-11,296,165,227,323.4-72,165.2-298.4,188.2-401.9,40.2-103.4-147.8-3.9-352.2,175-363.6ZM-8325.5,7208.5c-119-116.9-321.2-64.1-366.3,95.7-48.1,170.5,112.3,324.2,280.5,270.1,155.3-50,202.6-251,85.8-365.7Z"/>
          <path class="st19" d="M-8332.4,7210.8c120.5,112.1,66.4,319.2-92.2,360.5-177.1,46.1-326.7-134.3-247.3-299.6,62.8-130.8,233.7-159.2,339.6-60.8ZM-8491.1,7173.2c-43.1,2.9-85.6,19.7-117,49.4-.2,1.3,11.8,13.2,13.1,13.1,28.9-25,65.5-41.3,104-42.7v-19.7ZM-8469.1,7192.9c35.9,1.3,70.7,15.7,98.3,38.2,1.2.2,12.9-11.2,13.1-12.3.5-3.1-16.6-14-19.8-16-27.7-17.5-58.9-27.4-91.7-29.7v19.7ZM-8491.1,7213.8c-32.4,2.6-63.9,15.3-88.2,36.7-.3,1.4,11.5,13.3,13.3,13.3,21.3-16.9,47.2-29.5,74.9-30.2v-19.7ZM-8469.1,7233.6c25.6.7,50,11.8,70.3,26.8,1.8,0,13.6-11.8,13.3-13.3-23.3-19.6-53.3-30.7-83.6-33.2v19.7ZM-8289,7350.9c-2.2-43.2-21.5-86.6-51.9-117.3-1.5-.3-13.4,11.7-13.1,13.1,26.8,28.2,42.7,65.4,46.4,104.1h18.6ZM-8671.2,7350.9h18.6c3-37,18.1-71.2,41.7-99.5.4-.5.2-.9,0-1.4-.3-.8-11.5-8.9-12.1-11.8-2.7.1-14.2,16.3-16.4,19.6-18.1,27.1-30.6,60.3-31.8,93.1ZM-8491.1,7254.5c-10.9,1.1-22.1,3.7-32.2,7.9-4.2,1.7-27.9,14.3-27.1,18.1l12.2,12.4c14.1-9.2,29.7-18.3,47-18.6v-19.7ZM-8469.1,7254.5v19.7c14.9.2,28.9,7.4,41.4,14.9,2.2.2,12.3-11.3,14.3-13.8-17.2-10.8-35-19.5-55.8-20.9ZM-8348.2,7350.9h18.6c-2.3-33.1-17.4-65.7-40.1-89.5l-12,14.3c18.3,21.5,30.3,46.8,33.5,75.2ZM-8612,7350.9c3-25.7,13.1-50.9,30.1-70.5.4-2.2-11.3-11.7-13.3-14.3-19.9,23.5-33.7,53.7-35.4,84.8h18.6ZM-8370.3,7350.9c-1.7-22.4-12.6-43.8-27.3-60.4l-13.1,13.3c11.1,13.9,18.6,29.5,21.8,47.1h18.6ZM-8591,7350.9h19.7c2.5-16,9.6-30.3,18.6-43.5l-13.4-12.2c-14.2,15.5-20.7,35.5-25,55.7ZM-8491.1,7295.1c-10.9,1.8-21.1,6.4-30.2,12.2,0,1.5,12.4,14.2,13.4,14.2,1.3,0,13.1-8,16.9-6.7v-19.7ZM-8469.1,7295.1v19.7c3.5-.8,11.7,5,14,4.1,1.3-.6,12.7-12.6,12.8-13.9-8.3-4.8-17.2-8.2-26.7-9.9ZM-8411,7350.9c-2-11.1-6.8-21.9-14.6-30.2-1.2-.3-12.8,11.2-13.1,12.3-.5,2.4,9,13.5,8,17.8h19.7ZM-8529.5,7350.9c-1-3.8,6-12.3,5.6-14.4-.4-2.2-11.3-10.7-13.2-13.5-2.2,0-13.1,23.6-12.2,27.9h19.7ZM-8459,7343.2c-28.5-27.6-71.2,15.5-42,43.8,28.2,27.4,70.8-15.9,42-43.8ZM-8652.6,7371.8h-19.7c1.8,34.7,12.1,68.3,30.9,97.5,2.1,3.3,14.2,21.4,17.2,20.9s12.4-11.8,12.2-13.1c-24.2-29.6-40.1-66.7-40.5-105.4ZM-8612,7371.8h-19.7c1.9,33.3,13.9,65.2,35.4,90.6l13.3-14.3c-17.7-20.9-28.7-48.6-29-76.2ZM-8571.3,7371.8h-19.7c1.2,22.2,9.2,44.7,23.8,61.6l12-14.3c-8.7-14.3-16.7-30.1-16.1-47.3ZM-8531.8,7371.8h-18.6c.7,11.2,4.7,22.2,11.1,31.4,1.3.3,12.8-11.1,13.2-12.4.8-3.4-6-14.3-5.6-18.9ZM-8409.8,7371.8h-18s-7.6,20.3-7.6,20.3c.2,1.9,11.5,13.5,13.4,13.4,6.5-10.1,11.3-21.5,12.2-33.7ZM-8369.1,7371.8h-19.7c.1,17.7-7.8,35.6-18.6,49.4l15.1,13.4c12.5-19.2,22.3-39.3,23.3-62.7ZM-8328.5,7371.8h-19.7c-.1,28.3-12.2,55.2-29.1,77.3,0,1.8,11.9,13.7,13.4,13.4,21.5-25.5,33.5-57.3,35.5-90.6ZM-8287.8,7371.8h-19.7c-1.1,39.1-16,77.1-41.8,106.3,3.2,1.5,11.1,11.7,13.5,12.1,4.1.8,23.9-31.8,26.6-37.1,7.4-14.3,14.6-33.9,17.7-49.7,2.1-10.5,2.2-21.2,3.8-31.7ZM-8491.1,7414.8c-4.9,2.6-18.3-8.3-20.2-8s-10.9,11.4-13.5,13.2c9.7,7.5,21.2,13.4,33.7,14.5v-19.7ZM-8469.1,7434.6c11.3-1.2,22.9-5.8,31.3-13.4-2.3-1.7-11.8-12.9-13.3-13s-9.7,5.2-12.2,6.1c-1.9.7-5.8.3-5.8.5v19.7ZM-8491.1,7456.6c-18.5-2.4-34.3-10.4-49.3-21l-12.2,13.4c17,14.9,38.8,24.8,61.6,26.1v-18.6ZM-8469.1,7456.6v18.6c22.2-1.3,43.5-10.9,60.4-25.1.3-1.6-11.6-12.9-13.3-12.8-14.4,9.8-29.6,17-47.1,19.3ZM-8491.1,7497.3c-28.1-2.6-55.1-13.9-76.3-32.4-1.9-.3-12.4,11.4-14.4,13.8,8,4.8,14.9,11.2,22.9,16.1,20.1,12.2,44.2,20.1,67.7,21.1v-18.6ZM-8469.1,7515.9c32.7-1.6,65.6-15.5,89.4-37.8l-13.3-13.3c-21,18.6-48.1,29.9-76.1,32.5v18.6ZM-8491.1,7556.5v-18c0-2.7-10.7-1.5-13.2-1.9-28.5-3.7-56.4-16.5-79.6-33.1-2.2-1.6-10.3-9.4-11.4-9.7-4.3-1.1-10.1,10.3-14.3,12.1l7.6,7.5c31.3,25.1,70.5,41.6,110.9,43ZM-8469.1,7538.5c-1.2,3.9.9,13.3,0,18,38.4-1.4,75.9-16.4,106.3-39.5l12.3-11c-3.2-.9-10.4-11.3-11.8-11.9s-1.5-.5-2.5-.1c-1.8.6-12.9,10.6-16.2,12.9-21.7,14.9-48.5,26.3-74.7,29.8s-12.3-1-13.2,1.9Z"/>
        </g>
        <text class="st17" transform="translate(-8808.8 7703)"><tspan x="0" y="0">Alcantarillado</tspan></text>
      </g>
    </g>
    <rect class="st5" x="-9460.3" y="5579" width="40.9" height="40.9"/>
    <g>
      <path class="st19" d="M-9439.8,5590.2l9.2,9.3-3.7,3.7-4.7-4.6-.9-.8-.9.9-4.6,4.6-3.8-3.7,9.3-9.3M-9439.8,5588.5l-11,11,5.5,5.5,5.5-5.4,5.5,5.4,5.4-5.4-11-11h0Z"/>
      <polygon class="st19" points="-9435.7 5606.3 -9436.6 5605.4 -9439.8 5608.6 -9442.2 5606.2 -9439 5603 -9439.9 5602.1 -9444 5606.2 -9443.8 5606.4 -9443.8 5606.4 -9440.2 5610 -9440.2 5610 -9439.8 5610.4 -9435.7 5606.3"/>
    </g>
    <path class="st19" d="M-8930.4,2714.6l417.6,420.9-168.6,168.6-211.2-206.9-39.2-38.4-39,38.6-208.8,206.6-170.6-169.7,419.6-419.6M-8930.2,2635.7l-498.6,498.6,249.3,248,248-245.5,250.6,245.5,246.8-246.8-496.1-499.9h0Z"/>
    <polygon class="st19" points="-8747.2 3441.4 -8788.3 3400.2 -8934 3545.9 -9039.2 3440.6 -8893.6 3295 -8934.7 3253.9 -9120.7 3439.9 -9112.4 3448.2 -9113.2 3448.9 -8950.8 3611.3 -8950.1 3610.6 -8933.2 3627.4 -8747.2 3441.4"/>
    <text class="st11" transform="translate(-8319.1 2976.1)"><tspan x="0" y="0">ARRIAGADA</tspan></text>
    <text class="st11" transform="translate(-8314.1 3359.6)"><tspan x="0" y="0">CONSULTORES</tspan></text>
    <text class="st15" transform="translate(-8298.1 3609) scale(1 1)"><tspan x="0" y="0">SERVICIOS INMOBILIARIOS</tspan></text>
    <path d="M-10201.6,8588.8h3119.5c61.9,0,112.2,50.3,112.2,112.2v503.2c0,61.9-50.3,112.2-112.2,112.2h-3119.5v-727.6h0Z"/>
    <path class="st5" d="M-3798,9658.8l229.3,231.1-92.6,92.6-116-113.6-21.5-21.1-21.4,21.2-114.6,113.4-93.7-93.2,230.4-230.4M-3797.9,9615.5l-273.8,273.8,136.9,136.2,136.2-134.8,137.6,134.8,135.5-135.5-272.4-274.5h0Z"/>
    <polygon class="st5" points="-3697.4 10057.9 -3720 10035.3 -3799.9 10115.3 -3857.7 10057.5 -3777.8 9977.5 -3800.4 9954.9 -3902.5 10057.1 -3897.9 10061.6 -3898.4 10062 -3809.2 10151.2 -3808.8 10150.8 -3799.5 10160 -3697.4 10057.9"/>
    <text class="st10" transform="translate(-3462.3 9802.4)"><tspan x="0" y="0">ARRIAGADA</tspan></text>
    <text class="st2" transform="translate(-3459.6 10013)"><tspan x="0" y="0">CONSULTORES</tspan></text>
    <text class="st8" transform="translate(-3450.8 10149.9) scale(1 1)"><tspan x="0" y="0">SERVICIOS INMOBILIARIOS</tspan></text>
    <rect class="st3" x="-4708" y="10658.5" width="198.9" height="198.9"/>
    <path class="st5" d="M-3357.1,10606.6l149.9,151-60.5,60.5-75.8-74.2-14.1-13.8-14,13.8-74.9,74.1-61.2-60.9,150.6-150.6M-3357,10578.3l-178.9,178.9,89.5,89,89-88.1,89.9,88.1,88.5-88.5-178-179.4h0Z"/>
    <polygon class="st5" points="-3291.3 10867.4 -3306.1 10852.7 -3358.4 10904.9 -3396.1 10867.2 -3343.9 10814.9 -3358.6 10800.2 -3425.4 10866.9 -3422.4 10869.9 -3422.7 10870.2 -3364.4 10928.4 -3364.1 10928.1 -3358.1 10934.2 -3291.3 10867.4"/>
    <text class="st0" transform="translate(-3137.7 10700.5)"><tspan x="0" y="0">ARRIAGADA</tspan></text>
    <text class="st1" transform="translate(-3135.9 10838.1)"><tspan x="0" y="0">CONSULTORES</tspan></text>
    <text class="st6" transform="translate(-3130.2 10927.6) scale(1 1)"><tspan x="0" y="0">SERVICIOS INMOBILIARIOS</tspan></text>
    <g>
      <path class="st19" d="M-964.1-714.7l417.6,420.9-168.6,168.6-211.2-206.9-39.2-38.4-39,38.6-208.8,206.6-170.6-169.7,419.6-419.6M-963.9-793.5l-498.6,498.6,249.3,248,248-245.5,250.6,245.5,246.8-246.8-496.1-499.9h0Z"/>
      <polygon class="st19" points="-780.9 12.2 -822 -29 -967.6 116.6 -1072.9 11.4 -927.3 -134.2 -968.4 -175.4 -1154.4 10.6 -1146.1 19 -1146.9 19.7 -984.5 182.1 -983.7 181.3 -966.9 198.2 -780.9 12.2"/>
    </g>
  </g>
  <g id="Layer_3">
    <rect class="st3" x="-11.5" y="-1.4" width="527.4" height="525.8"/>
    <g>
      <path class="st19" d="M252.7,84.6l177.2,178.5-71.5,71.5-89.6-87.8-16.6-16.3-16.5,16.4-88.6,87.6-72.4-72L252.7,84.6M252.8,51.2L41.3,262.7l105.8,105.2,105.2-104.1,106.3,104.1,104.7-104.7L252.8,51.2h0Z"/>
      <polygon class="st19" points="330.5 392.9 313 375.5 251.2 437.3 206.6 392.6 268.4 330.8 250.9 313.4 172 392.3 175.5 395.8 175.2 396.2 244.1 465 244.4 464.7 251.6 471.9 330.5 392.9"/>
    </g>
  </g>
</svg>