<?xml version="1.0" encoding="UTF-8"?>
<svg id="Layer_1" xmlns="http://www.w3.org/2000/svg" version="1.1" viewBox="0 0 251.3 254.5">
  <!-- Generator: Adobe Illustrator 29.8.3, SVG Export Plug-In . SVG Version: 2.1.1 Build 3)  -->
  <defs>
    <style>
      .st0 {
        fill: #212529;
      }

      .st1 {
        fill: #f24e00;
      }
    </style>
  </defs>
  <path class="st0" d="M112.5,234.1H45c-.3,0-4.5-1.9-5.1-2.4-2.5-1.6-4.4-4.6-5.3-7.4-2.1-6-1.7-28.1-1.1-35.4,2.2-30.8,22.2-56.3,54-59.2l25,104.3h0Z"/>
  <path class="st0" d="M143.1,234.1l25-104.4c28.6,2.9,49.4,24.4,53.3,52.6,1.1,7.8,2,36.5-.4,42.9s-7,8.9-10.4,8.9h-67.5Z"/>
  <path class="st1" d="M115.8,126h24.6c.4,0,1.1,1.1,1.1,1.8,0,3.2-8.1,7.9-8.1,14.9,1.7,18.7,8.2,39.2,9.5,57.6.4,5.2,0,6.8-2.9,11.1-1.6,2.3-9.1,11.5-11.5,11.5s-2.3-1-3.4-1.8c-1.9-1.4-9.2-9.3-10.4-11.2s-1.4-4.1-2.1-6.2l9.6-60.2c2.4-5.6-7.7-12.4-8.2-15-.2-1.1,1.2-1.8,1.8-2.5h0Z"/>
  <circle class="st0" cx="127.7" cy="70.9" r="48.7"/>
</svg>