<?xml version="1.0" encoding="UTF-8"?>
<svg id="Layer_1" xmlns="http://www.w3.org/2000/svg" version="1.1" viewBox="0 0 251.3 254.5">
  <!-- Generator: Adobe Illustrator 29.8.3, SVG Export Plug-In . SVG Version: 2.1.1 Build 3)  -->
  <defs>
    <style>
      .st0 {
        fill: #212529;
      }

      .st1 {
        fill: #f24e00;
      }
    </style>
  </defs>
  <polygon class="st0" points="68.6 227.6 77.7 166.3 150.7 165.9 152 166.4 162.7 227.6 68.6 227.6"/>
  <path class="st1" d="M119.2,19.5c35.8-4.9,50.1,29.9,37.8,59.5-7,16.9-20.4,33.3-31.4,47.8-11.1-14.7-24.7-31.2-31.6-48.3-9.2-22.7-2.8-55.1,25.2-58.9h0ZM123.3,35.3c-15.6,2.7-12.8,30.6,6.3,26.3,12.6-2.8,11.2-29.3-6.3-26.3Z"/>
  <path class="st0" d="M78.6,159.3l7.9-60c-.4-2.6,9.6-1.8,10.3-1.4s4.8,8.1,5.8,9.6c4.3,6.2,15.2,23.1,20.2,27.3s12.2-8,15.3-12.1c6-7.9,11.5-16.3,16.5-24.7h13.9l10.1,61.5h-100s0-.2,0-.2Z"/>
  <polygon class="st0" points="231.9 227.6 169.4 227.6 159.4 165.9 220.6 165.9 231.9 227.6"/>
  <polygon class="st0" points="70.2 165.9 61.9 227.6 19.4 227.6 30.7 165.9 70.2 165.9"/>
  <polygon class="st0" points="79.4 97.6 70.7 159.3 31.9 159.3 41.9 97.6 79.4 97.6"/>
  <polygon class="st0" points="210.2 97.6 220.2 159.3 186.1 159.3 175.2 97.6 210.2 97.6"/>
</svg>