<?xml version="1.0" encoding="UTF-8"?>
<svg id="Layer_1" xmlns="http://www.w3.org/2000/svg" version="1.1" viewBox="0 0 251.3 254.5">
  <!-- Generator: Adobe Illustrator 29.8.3, SVG Export Plug-In . SVG Version: 2.1.1 Build 3)  -->
  <defs>
    <style>
      .st0 {
        fill: #212529;
      }

      .st1 {
        fill: #f24e00;
      }
    </style>
  </defs>
  <path class="st1" d="M63.3,86c-.4-.4-8.1.3-9.7,0l.5-2,52.8-41.7,53.4,41.7.5,2c-1.1.4-9.7-.5-9.7,0v59.9c0,.1-1.4,1.5-1.5,1.5h-29.2s-1.5-1.4-1.5-1.5v-32.1c0-7.5-23.4-7.5-23.4,0v32.1c0,.1-1.4,1.5-1.5,1.5h-29.2s-1.5-1.4-1.5-1.5v-59.9h0Z"/>
  <path class="st0" d="M106.1,25c41.5,0,75.3,33.8,75.3,75.3s-33.8,75.3-75.3,75.3S30.8,141.8,30.8,100.3,64.6,25,106.1,25M106.1,7C54.6,7,12.8,48.8,12.8,100.3s41.8,93.3,93.3,93.3,93.3-41.8,93.3-93.3S157.7,7,106.1,7h0Z"/>
  <path class="st0" d="M232.3,250.7c-2.3,0-4.6-.9-6.4-2.6l-74.6-74.5c-3.5-3.5-3.5-9.2,0-12.7,3.5-3.5,9.2-3.5,12.7,0l74.6,74.5c3.5,3.5,3.5,9.2,0,12.7-1.8,1.8-4.1,2.6-6.4,2.6Z"/>
</svg>