<?xml version="1.0" encoding="UTF-8"?>
<svg id="Layer_1" xmlns="http://www.w3.org/2000/svg" version="1.1" viewBox="0 0 251.3 254.5">
  <!-- Generator: Adobe Illustrator 29.8.3, SVG Export Plug-In . SVG Version: 2.1.1 Build 3)  -->
  <defs>
    <style>
      .st0 {
        fill: #212529;
      }

      .st1 {
        fill: #f24e00;
      }
    </style>
  </defs>
  <path class="st0" d="M56.7,218.7h138.1v-99c3.7,4.4,14.2,11.8,16.7,16.2s.9,1.5.8,2.5v84c-2,8-7.9,13.2-16.2,13.8-45.6,3.4-95.4-2.6-141.5,0-7.4-.3-14.6-7.3-15.4-14.6v-84c4.8-6.6,11.4-12.3,17.5-17.9v99h0Z"/>
  <path class="st1" d="M138.2,80.6v12.5c15.7,2.8,23.6,14.5,24.1,29.9l-27.5,2.5c-.9-6.2,0-15.8-8.7-15.9s-10.1,5.8-8.3,12.6c3.2,12,38.2,23,45.2,42.2,5.2,14.2-.3,26.9-13.6,33.4s-10.7,3.1-11,3.5c-.6.7.3,7.4,0,9.1h-25c-.5,0,.7-7.7-.4-9.2s-9.8-3.2-12.5-4.9c-9.7-6.1-13.4-16.7-13.8-27.8l27.5-3.8c-.5,10,2.1,21.1,14.5,19.1s5.6-6.8,4.5-11.1c-4.6-19-43-23.6-46.3-47.7-1.5-11.2,2.6-20.7,12.2-26.4,4.7-2.8,9.4-3.6,14.2-5.8v-12.1h25,0Z"/>
  <path class="st0" d="M125.5,20l2,1.2,115.2,115.2c6.6,8.7-3.4,19.2-12.1,13L126.1,44.9l-1.6.7L21,149.3c-9.3,6.6-19.3-5.4-11.3-13.8L125.5,20Z"/>
  <path class="st0" d="M182.3,28.2v41.6c-1.5.4-1.7-.6-2.5-1.2-8.3-6.3-15.9-17.3-24.1-24.1v-16.2h26.6Z"/>
</svg>